<svg width="440" height="280" viewBox="0 0 440 280" xmlns="http://www.w3.org/2000/svg">
  <rect width="440" height="280" rx="12" fill="#fff"/>
  <!-- Logo mark: potrace coords span x≈0-747 y≈0-495, center≈(374,248) -->
  <g transform="translate(90,140) scale(0.2) translate(-374,-248)">
    <g transform="translate(0,495) scale(0.1,-0.1)" fill="#111" stroke="none">
      <path d="M2733 4398 c-300 -487 -643 -1043 -1118 -1813 -126 -203 -303 -491
      -395 -640 -91 -148 -332 -538 -535 -865 -484 -781 -626 -1012 -632 -1027 l-5
      -13 649 0 648 0 42 67 c22 38 83 138 135 223 53 85 229 376 393 645 242 398
      913 1491 1081 1762 22 35 41 63 44 63 4 0 433 -691 616 -994 34 -56 216 -353
      404 -661 188 -308 417 -683 509 -832 l166 -273 648 0 c356 0 647 2 647 5 0 5
      -216 359 -455 745 -87 140 -181 293 -210 340 -29 47 -105 171 -170 275 -65
      105 -182 294 -260 420 -389 632 -893 1451 -1105 1795 -436 708 -612 994 -698
      1135 -46 77 -86 141 -87 143 -2 2 -142 -223 -312 -500z"/>
      <path d="M6380 2425 l0 -2385 545 0 545 0 0 2385 0 2385 -545 0 -545 0 0 -2385z"/>
    </g>
  </g>
  <!-- Divider line -->
  <line x1="180" y1="65" x2="180" y2="215" stroke="#e0e0e0" stroke-width="1"/>
  <!-- Text -->
  <text x="200" y="125" font-family="-apple-system,BlinkMacSystemFont,'Segoe UI',Roboto,sans-serif" font-size="28" font-weight="700" fill="#111">AI Chat Enhancer</text>
  <text x="195" y="155" font-family="-apple-system,BlinkMacSystemFont,'Segoe UI',Roboto,sans-serif" font-size="12" fill="#888">Prompt templates, folders, export &amp; search</text>
  <text x="195" y="185" font-family="-apple-system,BlinkMacSystemFont,'Segoe UI',Roboto,sans-serif" font-size="10" fill="#bbb">ChatGPT &amp;#183; Claude &amp;#183; DeepSeek &amp;#183; Gemini &amp;#183; Grok &amp;#183; Perplexity</text>
</svg>
